<?xml version="1.0" encoding="UTF-8"?>
<!-- Created with Inkscape (http://www.inkscape.org/) -->
<svg width="512" height="512" version="1.1" viewBox="0 0 135.47 135.47" xmlns="http://www.w3.org/2000/svg" xmlns:cc="http://creativecommons.org/ns#" xmlns:dc="http://purl.org/dc/elements/1.1/" xmlns:rdf="http://www.w3.org/1999/02/22-rdf-syntax-ns#" xmlns:xlink="http://www.w3.org/1999/xlink">
 <defs>
  <radialGradient id="radialGradient4617" cx="113.99" cy="122.94" r="77.825" gradientTransform="matrix(.87032 0 0 .87032 4.6891 26.035)" gradientUnits="userSpaceOnUse">
   <stop stop-color="#fff" offset="0"/>
   <stop stop-color="#fff" stop-opacity="0" offset="1"/>
  </radialGradient>
  <radialGradient id="radialGradient4627" cx="113.99" cy="122.94" r="77.825" gradientTransform="matrix(.87032 0 0 .87032 4.6891 26.035)" gradientUnits="userSpaceOnUse">
   <stop stop-color="#fff" offset="0"/>
   <stop stop-color="#c8c8c8" offset="1"/>
  </radialGradient>
 </defs>
 <metadata>
  <rdf:RDF>
   <cc:Work rdf:about="">
    <dc:format>image/svg+xml</dc:format>
    <dc:type rdf:resource="http://purl.org/dc/dcmitype/StillImage"/>
    <dc:title/>
   </cc:Work>
  </rdf:RDF>
 </metadata>
 <g transform="translate(-36.16 -65.3)">
  <circle cx="103.89" cy="133.03" r="67.298" fill="url(#radialGradient4627)" stroke="#000" stroke-width=".87032"/>
  <g transform="matrix(.87032 0 0 .87032 3.6695 25.325)">
   <path d="m79.306 81.558c-3.6753-1.88e-4 -6.6548 2.9789-6.6549 6.6542 1e-4 3.6753 2.9796 6.6548 6.6549 6.6546 0.91077-3e-3 1.8113-0.19228 2.6458-0.55708l22.659 20.495c0.26833 5.8057-0.0567 10.981 0.95912 17.036l-23.617 21.363c-0.83465-0.36504-1.7354-0.55482-2.6464-0.55759-3.6753-1.8e-4 -6.6548 2.9791-6.6549 6.6544-1.9e-4 3.6755 2.9794 6.6551 6.6549 6.6549 3.6753-9e-5 6.6546-2.9796 6.6544-6.6549-2e-3 -0.27167-0.0206-0.54296-0.0558-0.81235l22.473-16.629c1.5047 3.848 3.6529 11.856 6.7798 11.856 3.1269-1e-5 5.2751-8.0081 6.7798-11.856l22.473 16.629c-0.0352 0.26939-0.0538 0.54068-0.0558 0.81235-1.9e-4 3.6752 2.9791 6.6548 6.6544 6.6549 3.6757 5.3e-4 6.6556-2.9792 6.6554-6.6549-9e-5 -3.6755-2.9799-6.6548-6.6554-6.6544-0.91098 3e-3 -1.8117 0.19255-2.6464 0.55759l-23.617-21.363c1.0158-6.0543 0.69079-11.23 0.95912-17.036l22.659-20.495c0.83453 0.3648 1.7351 0.5544 2.6458 0.55708 3.6755 5.2e-4 6.6553-2.9789 6.6554-6.6544-9e-5 -3.6753-2.9796-6.6545-6.6549-6.6544h-5.3e-4c-3.6751 1.19e-4 -6.6543 2.9793-6.6544 6.6544 2e-3 0.27184 0.0206 0.54331 0.0558 0.81287l-20.79 15.385c-2.3814-3.1261-3.8034-4.5989-8.4617-4.5989s-6.0804 1.4728-8.4618 4.5989l-20.79-15.385c0.0352-0.26956 0.0538-0.54103 0.0558-0.81287-1e-4 -3.6751-2.9793-6.6543-6.6544-6.6544z" stroke-width=".26458"/>
   <g fill="#1a1a1a">
    <path d="m96.851 61.577-18.829 16.52 0.71055 6.9277 0.5178 3.1052-1.0061-1.3415-19.717 24.336c-0.44147 1.9343 1.0638 3.8054 3.1972 3.73l18.829-16.52-0.71055-6.9277-0.51728-3.1052 1.0056 1.3415 19.717-24.335c0.44146-1.9343-1.0638-3.8059-3.1972-3.7305z"/>
    <path d="m133.46 61.577 18.829 16.52-0.71055 6.9277-0.5178 3.1052 1.0061-1.3415 19.717 24.336c0.44147 1.9343-1.0638 3.8054-3.1972 3.73l-18.829-16.52 0.71055-6.9277 0.51728-3.1052-1.0056 1.3415-19.717-24.335c-0.44146-1.9343 1.0638-3.8059 3.1972-3.7305z"/>
    <path d="m96.852 185.94-18.829-16.52 0.71055-6.9277 0.5178-3.1052-1.0061 1.3415-19.717-24.336c-0.44147-1.9343 1.0638-3.8054 3.1972-3.73l18.829 16.52-0.71055 6.9277-0.51728 3.1052 1.0056-1.3415 19.717 24.335c0.44146 1.9343-1.0638 3.806-3.1972 3.7305z"/>
    <path d="m133.46 185.94 18.829-16.52-0.71055-6.9277-0.5178-3.1052 1.0061 1.3415 19.717-24.336c0.44147-1.9343-1.0638-3.8054-3.1972-3.73l-18.829 16.52 0.71055 6.9277 0.51728 3.1052-1.0056-1.3415-19.717 24.335c-0.44146 1.9343 1.0638 3.806 3.1972 3.7305z"/>
   </g>
  </g>
  <circle cx="103.89" cy="133.03" r="67.298" fill="url(#radialGradient4617)" opacity=".204" stroke="#000" stroke-width=".87032"/>
 </g>
</svg>
